<svg xmlns="http://www.w3.org/2000/svg" style="display: none;">
  <symbol id="checkmark" viewBox="0 0 24 24">
    <path fill="currentColor" d="M9 16.17L4.83 12l-1.42 1.41L9 19 21 7l-1.41-1.41z" />
  </symbol>

  <symbol id="error" viewBox="0 0 24 24">
    <path fill="currentColor" d="M12 2C6.48 2 2 6.48 2 12s4.48 10 10 10 10-4.48 10-10S17.52 2 12 2zm1 15h-2v-2h2v2zm0-4h-2V7h2v6z"/>
  </symbol>

  <symbol id="list-bullet" viewBox="0 0 24 24">
    <circle cx="12" cy="12" r="8" fill="currentColor" />
  </symbol>

  <symbol id="radio-button" viewBox="0 0 24 24">
    <circle cx="12" cy="12" r="8" fill="currentColor" />
  </symbol>

  <symbol id="icon-calendar" viewBox="0 0 24 24" fill="none" stroke="currentColor" stroke-width="2" stroke-linecap="round" stroke-linejoin="round">
    <rect x="3" y="4" width="18" height="18" rx="2" ry="2"></rect>
    <line x1="16" y1="2" x2="16" y2="6"></line>
    <line x1="8" y1="2" x2="8" y2="6"></line>
    <line x1="3" y1="10" x2="21" y2="10"></line>
</symbol>
</svg>